<?xml version="1.0" standalone="yes"?>

<svg version="1.1" viewBox="0.0 0.0 960.0 720.0" fill="none" stroke="none" stroke-linecap="square" stroke-miterlimit="10" xmlns="http://www.w3.org/2000/svg" xmlns:xlink="http://www.w3.org/1999/xlink"><clipPath id="p.0"><path d="m0 0l960.0 0l0 720.0l-960.0 0l0 -720.0z" clip-rule="nonzero"></path></clipPath><g clip-path="url(#p.0)"><path fill="#000000" fill-opacity="0.0" d="m0 0l960.0 0l0 720.0l-960.0 0z" fill-rule="nonzero"></path><path fill="#000000" fill-opacity="0.0" d="m209.69554 49.695538l701.8268 0l0 424.2205l-701.8268 0z" fill-rule="nonzero"></path><path fill="#000000" d="m275.9924 577.0862q-18.390625 0 -30.39061 -12.25q-11.984375 -12.265625 -11.984375 -34.375q0 -22.12503 26.374985 -141.25003q26.390625 -119.125 26.390625 -171.89061l-3.1875 -23.453125q41.5625 -14.390625 77.8125 -14.390625q5.328125 7.453125 5.328125 26.109375q0 42.640625 -26.921875 164.96873q-26.90625 122.328125 -26.90625 142.31253q0 19.984375 4.796875 19.984375l37.3125 -13.328125l9.59375 18.65625q-18.125 14.390625 -43.984375 26.65625q-25.84375 12.25 -44.234375 12.25zm210.89651 -209.45316q0 22.375 -14.40625 77.015625q-14.390625 54.625 -14.390625 71.421906q0 16.78125 4.8125 16.78125q3.1875 0 24.515625 -10.125l6.390625 -3.203125l9.0625 18.65625q-4.796875 4.265625 -12.796875 10.671875q-7.984375 6.390625 -29.84375 17.3125q-21.859375 10.921875 -40.515625 10.921875q-18.640625 0 -29.3125 -11.453125q-10.65625 -11.453125 -10.65625 -30.90625q0 -19.46875 13.328125 -69.296906q13.328125 -49.84375 13.328125 -64.765625q0 -22.375 -13.859375 -42.109375l-4.796875 -6.390625l0.53125 -6.921875q28.25 -8.0 91.671875 -8.0q6.9375 8.0 6.9375 30.390625zm-60.765625 -88.75q-10.65625 -10.40625 -10.65625 -27.98436q0 -17.59375 14.65625 -30.90625q14.65625 -13.328125 33.84375 -13.328125q19.1875 0 29.84375 10.65625q10.65625 10.65625 10.65625 27.984375q0 17.312485 -15.1875 30.64061q-15.1875 13.328125 -33.84375 13.328125q-18.65625 0 -29.3125 -10.390625zm262.31525 62.09375q-1.0625 13.328125 -9.046875 30.90625q-20.265625 -2.125 -38.390625 -2.125l-9.59375 0q-24.515625 118.859375 -24.515625 148.1719q0 15.453125 6.65625 15.453125q6.671875 0 35.453125 -13.328125l9.59375 17.59375q-47.4375 39.4375 -87.9375 39.4375q-18.65625 0 -30.65625 -11.71875q-11.984375 -11.734375 -11.984375 -31.1875q0 -19.453125 4.53125 -43.96878q4.53125 -24.515625 12.515625 -59.953125q8.0 -35.453125 11.734375 -57.3125q-19.71875 1.609375 -29.3125 3.203125q-1.078125 -6.390625 -1.078125 -17.3125q0 -10.9375 1.609375 -17.859375l33.578125 0q4.265625 -28.78125 4.265625 -54.375l-0.53125 -16.515625l0 -1.609375q41.5625 -14.39061 78.34375 -14.39061q2.125 10.67186 2.125 26.656235q0 15.984375 -9.046875 60.234375l51.6875 0z" fill-rule="nonzero"></path><path fill="#ffff00" d="m419.3713 274.74545l0 0c-13.70993 -21.670013 -6.525055 -50.445465 16.047882 -64.27179q37.95346 -23.247147 54.62802 -80.127884q-11.9835205 57.894836 11.067963 94.33014l0 0c13.709961 21.670013 6.525055 50.44545 -16.047882 64.271774l0 0c-22.572937 13.826324 -51.986023 7.4677734 -65.695984 -14.20224z" fill-rule="nonzero"></path><path fill="#ffff00" d="m405.7503 242.21017l0 0c0 -28.12471 21.674377 -50.924286 48.41107 -50.924286l0 0c12.8394165 0 25.152985 5.365219 34.23181 14.915375c9.078827 9.550156 14.179291 22.502945 14.179291 36.00891l0 0c0 28.124695 -21.674408 50.924286 -48.411102 50.924286l0 0c-26.736694 0 -48.41107 -22.799591 -48.41107 -50.924286z" fill-rule="nonzero"></path><path fill="#ffff00" d="m405.43985 242.74127c3.2662048 -48.600616 40.621796 -97.63626 86.307556 -113.293594z" fill-rule="nonzero"></path><path fill="#ffff00" d="m436.72855 195.61148l53.87741 -65.60324l-17.803131 82.534164z" fill-rule="nonzero"></path><path fill="#ff0000" d="m478.09885 273.43774l0 0c8.629517 -9.487579 6.8374634 -23.89116 -4.002716 -32.171326q-18.226288 -13.921997 -23.058899 -42.56949q2.3153687 28.803589 -12.194061 44.755722l0 0c-8.629547 9.487579 -6.8374634 23.89119 4.0026855 32.17134l0 0c10.840149 8.280151 26.623444 7.3013306 35.25299 -2.1862488z" fill-rule="nonzero"></path><path fill="#ff0000" d="m487.42117 258.6981l0 0c1.9134521 -13.578598 -7.8472595 -26.127167 -21.801147 -28.028l0 0c-6.700897 -0.9128113 -13.492371 0.8020935 -18.88034 4.767456c-5.3880005 3.9653625 -8.931152 9.856369 -9.850006 16.377045l0 0c-1.9134521 13.578598 7.8472595 26.127182 21.801147 28.028l0 0c13.953857 1.9008179 26.816895 -7.5658875 28.730347 -21.1445z" fill-rule="nonzero"></path><path fill="#ff0000" d="m487.49542 259.66412l0 0c1.9907532 -24.095871 -14.609589 -51.139374 -37.95685 -61.83522z" fill-rule="nonzero"></path><path fill="#ff0000" d="m474.42392 233.99788l-23.655334 -35.50363l3.6762695 41.11319z" fill-rule="nonzero"></path></g></svg>

